<svg xmlns="http://www.w3.org/2000/svg" width="1440" height="1180" viewBox="0 0 1440 1180">
<defs>
 <linearGradient id="bg" x2="1" y2="1"><stop stop-color="#f5f9fc"/><stop offset=".62" stop-color="#edf4f8"/><stop offset="1" stop-color="#f8fafb"/></linearGradient>
 <radialGradient id="mist"><stop stop-color="#d9ebf6" stop-opacity=".64"/><stop offset="1" stop-color="#d9ebf6" stop-opacity="0"/></radialGradient>
 <filter id="shadow" x="-.2" y="-.2" width="1.4" height="1.5"><feDropShadow dx="0" dy="9" stdDeviation="13" flood-color="#20496a" flood-opacity=".07"/></filter>
 <style>.sans{font-family:'Arial','Microsoft YaHei',sans-serif}.serif{font-family:'Noto Serif SC','Songti SC',serif}</style>
</defs>
<rect width="1440" height="1180" fill="url(#bg)"/><ellipse cx="1220" cy="165" rx="420" ry="300" fill="url(#mist)"/>
<!-- Header -->
<rect width="1440" height="72" fill="#f8fbfced"/><path d="M0 71.5h1440" stroke="#d7e4ec"/>
<g transform="translate(72 18)"><rect width="36" height="36" rx="12" fill="#122d4b"/><path d="M25 0h-7v36h7a11 11 0 0 0 11-11V11A11 11 0 0 0 25 0" fill="#2866a5"/><text x="8" y="25" class="serif" font-size="20" fill="white">远</text><text x="48" y="17" class="serif" font-size="15" font-weight="600" fill="#122d4b">远帆 · 选调生去向档案</text><text x="48" y="31" class="sans" font-size="8.5" letter-spacing="1.6" fill="#788fa3">GRADUATE DESTINATION ARCHIVE</text></g>
<g transform="translate(376 16)"><rect width="390" height="40" rx="12" fill="#ffffffc9" stroke="#d3e1eb"/><circle cx="19" cy="19" r="6.5" fill="none" stroke="#69849a" stroke-width="1.6"/><path d="m24 24 5 5" stroke="#69849a" stroke-width="1.6"/><text x="41" y="25" class="sans" font-size="12" fill="#91a5b4">快速查找姓名、单位或地区</text><rect x="348" y="9" width="30" height="21" rx="5" fill="white" stroke="#dce6ed"/><text x="355" y="24" class="sans" font-size="9" fill="#8095a7">⌘ K</text></g>
<text x="949" y="41" class="sans" font-size="11" fill="#70879a">数据更新至</text><text x="1015" y="41" class="sans" font-size="11" font-weight="600" fill="#264f73">2025.06.30</text><text x="1133" y="42" class="sans" font-size="13" font-weight="600" fill="#122d4b">检索</text><path d="M1128 70h43" stroke="#327ab8" stroke-width="2"/><text x="1201" y="42" class="sans" font-size="13" fill="#647d92">统计分析</text>
<!-- Title and search -->
<text x="72" y="122" class="sans" font-size="11" fill="#8397a7">首页　/　多维筛选</text><text x="72" y="174" class="serif" font-size="29" font-weight="600" fill="#122d4b">找到与你方向相近的选择</text><text x="72" y="201" class="sans" font-size="12" fill="#748b9e">组合届别、地区、学院与岗位条件，逐步缩小范围。</text>
<rect x="72" y="222" width="1296" height="60" rx="14" fill="#ffffffdf" stroke="#d8e5ed" filter="url(#shadow)"/><circle cx="101" cy="251" r="7" fill="none" stroke="#6d879b" stroke-width="1.7"/><path d="m106 256 5 5" stroke="#6d879b" stroke-width="1.7"/><text x="126" y="256" class="sans" font-size="13" fill="#94a7b6">搜索姓名、学院、专业、省份或录用单位</text><rect x="1242" y="229" width="112" height="46" rx="10" fill="#286b9e"/><text x="1266" y="257" class="sans" font-size="12" fill="white">搜索记录　↗</text>
<!-- results toolbar -->
<text x="72" y="324" class="serif" font-size="20" font-weight="600" fill="#122d4b">多维筛选</text><text x="72" y="346" class="sans" font-size="11" fill="#8094a4">按你关心的条件筛选公开去向档案</text><text x="1195" y="337" class="sans" font-size="10" fill="#8a9eac">筛选结果实时更新</text><circle cx="1185" cy="333" r="3" fill="#6eaf8a"/>
<!-- active facets -->
<rect x="72" y="363" width="1296" height="53" rx="13" fill="#e8f2f8" stroke="#d4e5f0"/><text x="93" y="394" class="sans" font-size="11" font-weight="600" fill="#426b89">当前条件</text><rect x="166" y="376" width="86" height="27" rx="14" fill="white" stroke="#cbdde9"/><text x="179" y="394" class="sans" font-size="10" fill="#426d8e">2025 届　×</text><rect x="260" y="376" width="87" height="27" rx="14" fill="white" stroke="#cbdde9"/><text x="274" y="394" class="sans" font-size="10" fill="#426d8e">江苏省　×</text><rect x="354" y="376" width="125" height="27" rx="14" fill="white" stroke="#cbdde9"/><text x="367" y="394" class="sans" font-size="10" fill="#426d8e">公共管理学院　×</text><text x="1292" y="394" class="sans" font-size="10" fill="#668299">清空全部</text>
<!-- sidebar -->
<rect x="72" y="436" width="302" height="631" rx="17" fill="#ffffffdf" stroke="#dbe6ee" filter="url(#shadow)"/>
<text x="96" y="470" class="serif" font-size="15" font-weight="600" fill="#193b59">筛选条件</text><text x="319" y="470" class="sans" font-size="10" fill="#879aa8">收起</text><path d="M96 486h254" stroke="#e6edf2"/>
<!-- Cohort open -->
<path d="m99 511 5 5 5-5" fill="none" stroke="#64829a" stroke-width="1.5"/><text x="119" y="516" class="sans" font-size="12" font-weight="600" fill="#345a78">毕业届别</text><rect x="316" y="499" width="32" height="20" rx="10" fill="#e5f0f7"/><text x="327" y="513" class="sans" font-size="9" fill="#3977a3">1</text>
<rect x="98" y="532" width="16" height="16" rx="4" fill="#3479ac"/><path d="m102 540 3 3 6-7" fill="none" stroke="white" stroke-width="1.5"/><text x="125" y="544" class="sans" font-size="11" font-weight="600" fill="#365b77">2025 届</text><text x="322" y="544" class="sans" font-size="10" fill="#8ba0af">186</text>
<rect x="98" y="558" width="16" height="16" rx="4" fill="white" stroke="#cbd9e2"/><text x="125" y="570" class="sans" font-size="11" fill="#607b90">2024 届</text><text x="322" y="570" class="sans" font-size="10" fill="#8ba0af">241</text><rect x="98" y="584" width="16" height="16" rx="4" fill="white" stroke="#cbd9e2"/><text x="125" y="596" class="sans" font-size="11" fill="#607b90">2023 届</text><text x="322" y="596" class="sans" font-size="10" fill="#8ba0af">209</text><text x="98" y="620" class="sans" font-size="10" fill="#3979af">展开更多届别　⌄</text>
<path d="M96 637h254" stroke="#e6edf2"/>
<!-- province open -->
<path d="m99 661 5 5 5-5" fill="none" stroke="#64829a" stroke-width="1.5"/><text x="119" y="666" class="sans" font-size="12" font-weight="600" fill="#345a78">去向省份</text><rect x="316" y="649" width="32" height="20" rx="10" fill="#e5f0f7"/><text x="327" y="663" class="sans" font-size="9" fill="#3977a3">1</text>
<rect x="98" y="682" width="16" height="16" rx="4" fill="#3479ac"/><path d="m102 690 3 3 6-7" fill="none" stroke="white" stroke-width="1.5"/><text x="125" y="694" class="sans" font-size="11" font-weight="600" fill="#365b77">江苏省</text><text x="322" y="694" class="sans" font-size="10" fill="#8ba0af">42</text><rect x="98" y="708" width="16" height="16" rx="4" fill="white" stroke="#cbd9e2"/><text x="125" y="720" class="sans" font-size="11" fill="#607b90">浙江省</text><text x="322" y="720" class="sans" font-size="10" fill="#8ba0af">28</text><rect x="98" y="734" width="16" height="16" rx="4" fill="white" stroke="#cbd9e2"/><text x="125" y="746" class="sans" font-size="11" fill="#607b90">北京市</text><text x="322" y="746" class="sans" font-size="10" fill="#8ba0af">25</text><rect x="98" y="760" width="16" height="16" rx="4" fill="white" stroke="#cbd9e2"/><text x="125" y="772" class="sans" font-size="11" fill="#607b90">广东省</text><text x="322" y="772" class="sans" font-size="10" fill="#8ba0af">19</text><text x="98" y="797" class="sans" font-size="10" fill="#3979af">展开更多地区　⌄</text>
<path d="M96 815h254" stroke="#e6edf2"/>
<!-- College open -->
<path d="m99 839 5 5 5-5" fill="none" stroke="#64829a" stroke-width="1.5"/><text x="119" y="844" class="sans" font-size="12" font-weight="600" fill="#345a78">所在学院</text><rect x="316" y="827" width="32" height="20" rx="10" fill="#e5f0f7"/><text x="327" y="841" class="sans" font-size="9" fill="#3977a3">1</text>
<rect x="98" y="860" width="16" height="16" rx="4" fill="#3479ac"/><path d="m102 868 3 3 6-7" fill="none" stroke="white" stroke-width="1.5"/><text x="125" y="872" class="sans" font-size="11" font-weight="600" fill="#365b77">公共管理学院</text><text x="322" y="872" class="sans" font-size="10" fill="#8ba0af">31</text><rect x="98" y="886" width="16" height="16" rx="4" fill="white" stroke="#cbd9e2"/><text x="125" y="898" class="sans" font-size="11" fill="#607b90">信息工程学院</text><text x="322" y="898" class="sans" font-size="10" fill="#8ba0af">27</text><text x="98" y="925" class="sans" font-size="10" fill="#3979af">展开更多学院　⌄</text>
<path d="M96 943h254" stroke="#e6edf2"/>
<!-- Position collapsed -->
<path d="m99 968 5 5 5-5" fill="none" stroke="#64829a" stroke-width="1.5"/><text x="119" y="973" class="sans" font-size="12" font-weight="600" fill="#345a78">岗位类别</text><text x="98" y="1001" class="sans" font-size="10" fill="#879ba9">综合管理、基层治理、选调类型…</text>
<rect x="72" y="1019" width="302" height="48" rx="0 0 17 17" fill="#f7fafc"/><path d="M72 1019h302" stroke="#e1eaf0"/><rect x="93" y="1027" width="259" height="31" rx="9" fill="#286b9e"/><text x="181" y="1047" class="sans" font-size="11" font-weight="600" fill="white">查看 186 条结果</text>
<!-- result area -->
<text x="411" y="461" class="serif" font-size="19" font-weight="600" fill="#122d4b">符合条件的档案</text><text x="596" y="460" class="sans" font-size="11" fill="#8195a5">共</text><text x="612" y="460" class="sans" font-size="15" font-weight="600" fill="#3279aa">186</text><text x="638" y="460" class="sans" font-size="11" fill="#8195a5">条</text><text x="411" y="483" class="sans" font-size="10" fill="#8a9eac">2025 届　·　江苏省　·　公共管理学院</text>
<rect x="1093" y="441" width="126" height="34" rx="9" fill="#ffffffd9" stroke="#d8e4ec"/><text x="1108" y="462" class="sans" font-size="10" fill="#617b90">最新收录优先　⌄</text><rect x="1227" y="441" width="117" height="34" rx="9" fill="#ffffffd9" stroke="#d8e4ec"/><path d="M1243 452h12m-12 5h12m-12 5h12" stroke="#618098"/><text x="1263" y="462" class="sans" font-size="10" fill="#617b90">卡片视图</text>
<!-- record card 1 -->
<rect x="407" y="503" width="961" height="172" rx="16" fill="#ffffffdf" stroke="#dbe6ee" filter="url(#shadow)"/><rect x="430" y="524" width="47" height="47" rx="14" fill="#d9ebf5"/><text x="443" y="556" class="serif" font-size="20" font-weight="600" fill="#326b96">林</text><circle cx="474" cy="568" r="5" fill="#73ae8b" stroke="white" stroke-width="2"/><text x="494" y="541" class="serif" font-size="18" font-weight="600" fill="#122d4b">林知夏</text><rect x="570" y="523" width="55" height="22" rx="7" fill="#edf5fa" stroke="#d9e8f1"/><text x="582" y="538" class="sans" font-size="9" fill="#3c7095">2025 届</text><text x="494" y="563" class="sans" font-size="10" fill="#71899c">硕士　·　公共管理学院　·　行政管理</text>
<path d="M430 585h914" stroke="#e8eef2"/><g class="sans"><text x="430" y="608" font-size="9" fill="#899ba8">去向地区</text><text x="430" y="628" font-size="11" font-weight="600" fill="#327aaa">江苏省</text><text x="650" y="608" font-size="9" fill="#899ba8">录用单位</text><text x="650" y="628" font-size="11" font-weight="600" fill="#294e6d">南京市纪委监委</text><text x="917" y="608" font-size="9" fill="#899ba8">岗位方向</text><text x="917" y="628" font-size="11" font-weight="600" fill="#294e6d">综合管理 · 省直</text></g><text x="430" y="655" class="sans" font-size="9" fill="#8a9aa7">来源：公共管理学院毕业去向分享</text><rect x="1221" y="639" width="123" height="27" rx="8" fill="#eaf3f9" stroke="#d6e7f1"/><text x="1241" y="657" class="sans" font-size="10" fill="#2b6c9d">查看档案　↗</text>
<!-- record card 2 -->
<rect x="407" y="691" width="961" height="172" rx="16" fill="#ffffffdf" stroke="#dbe6ee" filter="url(#shadow)"/><rect x="430" y="712" width="47" height="47" rx="14" fill="#e5edf4"/><text x="443" y="744" class="serif" font-size="20" font-weight="600" fill="#547a97">周</text><circle cx="474" cy="756" r="5" fill="#73ae8b" stroke="white" stroke-width="2"/><text x="494" y="729" class="serif" font-size="18" font-weight="600" fill="#122d4b">周予安</text><rect x="570" y="711" width="55" height="22" rx="7" fill="#edf5fa" stroke="#d9e8f1"/><text x="582" y="726" class="sans" font-size="9" fill="#3c7095">2025 届</text><text x="494" y="751" class="sans" font-size="10" fill="#71899c">硕士　·　公共管理学院　·　社会学</text>
<path d="M430 773h914" stroke="#e8eef2"/><g class="sans"><text x="430" y="796" font-size="9" fill="#899ba8">去向地区</text><text x="430" y="816" font-size="11" font-weight="600" fill="#327aaa">江苏省</text><text x="650" y="796" font-size="9" fill="#899ba8">录用单位</text><text x="650" y="816" font-size="11" font-weight="600" fill="#294e6d">苏州市吴中区委组织部</text><text x="917" y="796" font-size="9" fill="#899ba8">岗位方向</text><text x="917" y="816" font-size="11" font-weight="600" fill="#294e6d">基层治理 · 区县</text></g><text x="430" y="843" class="sans" font-size="9" fill="#8a9aa7">来源：公共管理学院毕业去向分享</text><rect x="1221" y="827" width="123" height="27" rx="8" fill="#eaf3f9" stroke="#d6e7f1"/><text x="1241" y="845" class="sans" font-size="10" fill="#2b6c9d">查看档案　↗</text>
<!-- record card 3 -->
<rect x="407" y="879" width="961" height="172" rx="16" fill="#ffffffdf" stroke="#dbe6ee" filter="url(#shadow)"/><rect x="430" y="900" width="47" height="47" rx="14" fill="#e9e7f2"/><text x="443" y="932" class="serif" font-size="20" font-weight="600" fill="#746f9c">陈</text><circle cx="474" cy="944" r="5" fill="#73ae8b" stroke="white" stroke-width="2"/><text x="494" y="917" class="serif" font-size="18" font-weight="600" fill="#122d4b">陈一诺</text><rect x="570" y="899" width="55" height="22" rx="7" fill="#edf5fa" stroke="#d9e8f1"/><text x="582" y="914" class="sans" font-size="9" fill="#3c7095">2025 届</text><text x="494" y="939" class="sans" font-size="10" fill="#71899c">本科　·　公共管理学院　·　政治学与行政学</text>
<path d="M430 961h914" stroke="#e8eef2"/><g class="sans"><text x="430" y="984" font-size="9" fill="#899ba8">去向地区</text><text x="430" y="1004" font-size="11" font-weight="600" fill="#327aaa">江苏省</text><text x="650" y="984" font-size="9" fill="#899ba8">录用单位</text><text x="650" y="1004" font-size="11" font-weight="600" fill="#294e6d">无锡市梁溪区人民政府</text><text x="917" y="984" font-size="9" fill="#899ba8">岗位方向</text><text x="917" y="1004" font-size="11" font-weight="600" fill="#294e6d">综合管理 · 区县</text></g><text x="430" y="1031" class="sans" font-size="9" fill="#8a9aa7">来源：学校公开毕业去向名单</text><rect x="1221" y="1015" width="123" height="27" rx="8" fill="#eaf3f9" stroke="#d6e7f1"/><text x="1241" y="1033" class="sans" font-size="10" fill="#2b6c9d">查看档案　↗</text>
<!-- pagination -->
<g class="sans" font-size="10"><rect x="786" y="1080" width="34" height="32" rx="8" fill="white" stroke="#d8e4ec"/><text x="799" y="1100" fill="#73899a">‹</text><rect x="828" y="1080" width="34" height="32" rx="8" fill="#286b9e"/><text x="841" y="1100" fill="white">1</text><rect x="870" y="1080" width="34" height="32" rx="8" fill="white" stroke="#d8e4ec"/><text x="883" y="1100" fill="#73899a">2</text><rect x="912" y="1080" width="34" height="32" rx="8" fill="white" stroke="#d8e4ec"/><text x="925" y="1100" fill="#73899a">3</text><text x="960" y="1100" fill="#8397a7">…</text><rect x="980" y="1080" width="34" height="32" rx="8" fill="white" stroke="#d8e4ec"/><text x="993" y="1100" fill="#73899a">9</text><rect x="1022" y="1080" width="34" height="32" rx="8" fill="white" stroke="#d8e4ec"/><text x="1035" y="1100" fill="#73899a">›</text></g>
<path d="M72 1140h1296" stroke="#dce6ed"/><text x="72" y="1163" class="sans" font-size="10" fill="#8da0ae">远帆 · 选调生去向档案</text><text x="866" y="1163" class="sans" font-size="10" fill="#8da0ae">资料来自公开发布内容，字段由 OCR 辅助整理，仅供信息参考。</text>
</svg>
